<svg width="132" height="132" viewBox="0 0 132 132" fill="none" xmlns="http://www.w3.org/2000/svg">
    <path fill-rule="evenodd" clip-rule="evenodd" d="M53.7973 103.682C83.5087 103.682 107.595 80.4719 107.595 51.841C107.595 23.21 83.5087 0 53.7973 0C24.0858 0 0 23.21 0 51.841C0 80.4719 24.0858 103.682 53.7973 103.682ZM53.7973 91.2017C76.3559 91.2017 94.6433 73.5793 94.6433 51.841C94.6433 30.1026 76.3559 12.4802 53.7973 12.4802C31.2386 12.4802 12.9512 30.1026 12.9512 51.841C12.9512 73.5793 31.2386 91.2017 53.7973 91.2017Z" fill="white"/>
    <path d="M93.9596 84.4816L126.364 115.708C129.477 118.707 129.477 123.57 126.364 126.569V126.569C123.252 129.569 118.206 129.569 115.093 126.569L82.6884 95.3429L93.9596 84.4816Z" fill="white"/>
</svg>
